<svg width="32" height="18" viewBox="0 0 32 18" fill="none" xmlns="http://www.w3.org/2000/svg">
<path d="M18.334 9C18.334 9.26522 18.2286 9.51957 18.0411 9.70711C17.8536 9.89464 17.5992 10 17.334 10H14.834V12.5C14.834 12.7652 14.7286 13.0196 14.5411 13.2071C14.3536 13.3946 14.0992 13.5 13.834 13.5C13.5688 13.5 13.3144 13.3946 13.1269 13.2071C12.9393 13.0196 12.834 12.7652 12.834 12.5V10H10.334C10.0688 10 9.81441 9.89464 9.62688 9.70711C9.43934 9.51957 9.33398 9.26522 9.33398 9C9.33398 8.73478 9.43934 8.48043 9.62688 8.29289C9.81441 8.10536 10.0688 8 10.334 8H12.834V5.5C12.834 5.23478 12.9393 4.98043 13.1269 4.79289C13.3144 4.60536 13.5688 4.5 13.834 4.5C14.0992 4.5 14.3536 4.60536 14.5411 4.79289C14.7286 4.98043 14.834 5.23478 14.834 5.5V8H17.334C17.5992 8 17.8536 8.10536 18.0411 8.29289C18.2286 8.48043 18.334 8.73478 18.334 9ZM27.334 3V15C27.334 15.7956 27.0179 16.5587 26.4553 17.1213C25.8927 17.6839 25.1296 18 24.334 18H3.33398C2.53833 18 1.77527 17.6839 1.21266 17.1213C0.650055 16.5587 0.333984 15.7956 0.333984 15V3C0.333984 2.20435 0.650055 1.44129 1.21266 0.87868C1.77527 0.316071 2.53833 0 3.33398 0H24.334C25.1296 0 25.8927 0.316071 26.4553 0.87868C27.0179 1.44129 27.334 2.20435 27.334 3ZM25.334 3C25.334 2.73478 25.2286 2.48043 25.0411 2.29289C24.8536 2.10536 24.5992 2 24.334 2H3.33398C3.06877 2 2.81441 2.10536 2.62688 2.29289C2.43934 2.48043 2.33398 2.73478 2.33398 3V15C2.33398 15.2652 2.43934 15.5196 2.62688 15.7071C2.81441 15.8946 3.06877 16 3.33398 16H24.334C24.5992 16 24.8536 15.8946 25.0411 15.7071C25.2286 15.5196 25.334 15.2652 25.334 15V3ZM30.334 4C30.0688 4 29.8144 4.10536 29.6269 4.29289C29.4393 4.48043 29.334 4.73478 29.334 5V13C29.334 13.2652 29.4393 13.5196 29.6269 13.7071C29.8144 13.8946 30.0688 14 30.334 14C30.5992 14 30.8536 13.8946 31.0411 13.7071C31.2286 13.5196 31.334 13.2652 31.334 13V5C31.334 4.73478 31.2286 4.48043 31.0411 4.29289C30.8536 4.10536 30.5992 4 30.334 4Z" fill="#00ADB5"/>
</svg>
