<svg width="29" height="20" viewBox="0 0 29 20" fill="none" xmlns="http://www.w3.org/2000/svg">
<path d="M26.666 0H2.66602C2.13558 0 1.62687 0.210714 1.2518 0.585786C0.876729 0.960859 0.666016 1.46957 0.666016 2V5C0.666016 5.53043 0.876729 6.03914 1.2518 6.41421C1.62687 6.78929 2.13558 7 2.66602 7V18C2.66602 18.5304 2.87673 19.0391 3.2518 19.4142C3.62687 19.7893 4.13558 20 4.66602 20H24.666C25.1964 20 25.7052 19.7893 26.0802 19.4142C26.4553 19.0391 26.666 18.5304 26.666 18V7C27.1964 7 27.7052 6.78929 28.0802 6.41421C28.4553 6.03914 28.666 5.53043 28.666 5V2C28.666 1.46957 28.4553 0.960859 28.0802 0.585786C27.7052 0.210714 27.1964 0 26.666 0ZM24.666 18H4.66602V7H24.666V18ZM26.666 5H2.66602V2H26.666V5ZM10.666 11C10.666 10.7348 10.7714 10.4804 10.9589 10.2929C11.1464 10.1054 11.4008 10 11.666 10H17.666C17.9312 10 18.1856 10.1054 18.3731 10.2929C18.5607 10.4804 18.666 10.7348 18.666 11C18.666 11.2652 18.5607 11.5196 18.3731 11.7071C18.1856 11.8946 17.9312 12 17.666 12H11.666C11.4008 12 11.1464 11.8946 10.9589 11.7071C10.7714 11.5196 10.666 11.2652 10.666 11Z" fill="#00ADB5"/>
</svg>
