<svg width="27" height="26" viewBox="0 0 27 26" fill="none" xmlns="http://www.w3.org/2000/svg">
<path d="M19.3735 9.2925C19.4665 9.38537 19.5403 9.49566 19.5906 9.61706C19.6409 9.73846 19.6668 9.86858 19.6668 10C19.6668 10.1314 19.6409 10.2615 19.5906 10.3829C19.5403 10.5043 19.4665 10.6146 19.3735 10.7075L12.3735 17.7075C12.2806 17.8005 12.1704 17.8742 12.049 17.9246C11.9276 17.9749 11.7974 18.0008 11.666 18.0008C11.5346 18.0008 11.4045 17.9749 11.2831 17.9246C11.1617 17.8742 11.0514 17.8005 10.9585 17.7075L7.95852 14.7075C7.77088 14.5199 7.66547 14.2654 7.66547 14C7.66547 13.7346 7.77088 13.4801 7.95852 13.2925C8.14616 13.1049 8.40066 12.9994 8.66602 12.9994C8.93139 12.9994 9.18588 13.1049 9.37352 13.2925L11.666 15.5863L17.9585 9.2925C18.0514 9.19952 18.1617 9.12576 18.2831 9.07544C18.4045 9.02512 18.5346 8.99921 18.666 8.99921C18.7974 8.99921 18.9276 9.02512 19.049 9.07544C19.1704 9.12576 19.2806 9.19952 19.3735 9.2925ZM26.666 13C26.666 15.5712 25.9036 18.0846 24.4751 20.2224C23.0467 22.3603 21.0163 24.0265 18.6409 25.0104C16.2655 25.9944 13.6516 26.2518 11.1298 25.7502C8.60809 25.2486 6.29172 24.0105 4.47363 22.1924C2.65555 20.3743 1.41742 18.0579 0.915813 15.5362C0.414205 13.0144 0.671648 10.4006 1.65559 8.02512C2.63953 5.64968 4.30577 3.61935 6.44361 2.1909C8.58145 0.762437 11.0949 0 13.666 0C17.1127 0.00363977 20.4172 1.37445 22.8544 3.81163C25.2916 6.24882 26.6624 9.5533 26.666 13ZM24.666 13C24.666 10.8244 24.0209 8.69767 22.8122 6.88873C21.6035 5.07979 19.8855 3.66989 17.8755 2.83733C15.8656 2.00476 13.6538 1.78692 11.52 2.21136C9.38624 2.6358 7.42622 3.68345 5.88785 5.22183C4.34947 6.7602 3.30182 8.72022 2.87738 10.854C2.45295 12.9878 2.67078 15.1995 3.50335 17.2095C4.33591 19.2195 5.74581 20.9375 7.55475 22.1462C9.36369 23.3549 11.4904 24 13.666 24C16.5824 23.9967 19.3784 22.8367 21.4405 20.7745C23.5027 18.7123 24.6627 15.9164 24.666 13Z" fill="#00ADB5"/>
</svg>
