<svg width="27" height="29" viewBox="0 0 27 29" fill="none" xmlns="http://www.w3.org/2000/svg">
<path d="M17.1665 22.5552L13.1665 28.5552C13.0936 28.6645 12.9999 28.7584 12.8907 28.8315C12.7816 28.9046 12.659 28.9555 12.5302 28.9813C12.27 29.0333 11.9998 28.9799 11.779 28.8327C11.5582 28.6855 11.4049 28.4566 11.3529 28.1964C11.3008 27.9362 11.3543 27.666 11.5015 27.4452L15.5015 21.4452C15.6487 21.2244 15.8776 21.0711 16.1378 21.0191C16.398 20.967 16.6682 21.0205 16.889 21.1677C17.1098 21.3149 17.2631 21.5438 17.3151 21.804C17.3671 22.0642 17.3137 22.3344 17.1665 22.5552ZM26.334 9.5002C26.3313 12.0189 25.3296 14.4338 23.5486 16.2148C21.7676 17.9958 19.3527 18.9975 16.834 19.0002H13.869L10.1665 24.5552C10.0936 24.6645 9.9999 24.7584 9.89073 24.8315C9.78155 24.9046 9.65905 24.9555 9.53021 24.9813C9.40137 25.0071 9.26871 25.0072 9.13982 24.9817C9.01092 24.9562 8.88831 24.9056 8.77898 24.8327C8.66966 24.7598 8.57576 24.6661 8.50265 24.5569C8.42953 24.4478 8.37864 24.3253 8.35287 24.1964C8.32711 24.0676 8.32697 23.9349 8.35247 23.806C8.37796 23.6771 8.4286 23.5545 8.50148 23.4452L11.4652 19.0002H6.83398C5.11008 19.0002 3.45678 18.3154 2.23779 17.0964C1.0188 15.8774 0.333984 14.2241 0.333984 12.5002C0.333984 10.7763 1.0188 9.12299 2.23779 7.904C3.45678 6.68502 5.11008 6.0002 6.83398 6.0002C7.20766 6.00052 7.58064 6.03229 7.94898 6.0952C8.7465 4.02366 10.2435 2.29636 12.1807 1.21256C14.1179 0.128763 16.3732 -0.243244 18.5558 0.160992C20.7385 0.565229 22.711 1.72024 24.1315 3.42591C25.5521 5.13158 26.3312 7.28044 26.334 9.5002ZM24.334 9.5002C24.326 7.55277 23.5616 5.68465 22.2021 4.29023C20.8426 2.89582 18.9945 2.08423 17.0479 2.0268C15.1013 1.96938 13.2086 2.67061 11.7693 3.98247C10.33 5.29432 9.45677 7.11413 9.33398 9.0577C9.32643 9.18902 9.29309 9.31757 9.23586 9.436C9.17863 9.55444 9.09863 9.66044 9.00043 9.74796C8.80211 9.92472 8.5417 10.0154 8.27648 10.0002C8.01127 9.98495 7.76297 9.86496 7.58622 9.66665C7.40947 9.46833 7.31873 9.20791 7.33398 8.9427C7.35148 8.6377 7.38357 8.33645 7.43023 8.03895C7.23249 8.01357 7.03335 8.00062 6.83398 8.0002C5.64051 8.0002 4.49592 8.4743 3.652 9.31822C2.80809 10.1621 2.33398 11.3067 2.33398 12.5002C2.33398 13.6937 2.80809 14.8383 3.652 15.6822C4.49592 16.5261 5.64051 17.0002 6.83398 17.0002H16.834C18.8224 16.9979 20.7287 16.207 22.1347 14.8009C23.5407 13.3949 24.3317 11.4886 24.334 9.5002Z" fill="#00ADB5"/>
</svg>
