<svg width="26" height="26" viewBox="0 0 26 26" fill="none" xmlns="http://www.w3.org/2000/svg">
<path d="M13.0009 3.09594e-07C10.7565 -0.000489452 8.55016 0.58011 6.5967 1.68529C4.64324 2.79046 3.00919 4.38256 1.8536 6.30662C0.698005 8.23069 0.0602364 10.4212 0.00236931 12.6648C-0.0554978 14.9085 0.468509 17.1289 1.52338 19.11L0.104634 23.3662C-0.0128848 23.7186 -0.0299396 24.0968 0.0553817 24.4583C0.140703 24.8199 0.325028 25.1505 0.587699 25.4132C0.850369 25.6759 1.181 25.8602 1.54254 25.9455C1.90408 26.0308 2.28224 26.0138 2.63463 25.8962L6.89088 24.4775C8.63435 25.4048 10.5662 25.9228 12.5397 25.992C14.5132 26.0613 16.4765 25.68 18.2807 24.8772C20.0849 24.0743 21.6825 22.871 22.9521 21.3586C24.2218 19.8462 25.1303 18.0644 25.6085 16.1484C26.0868 14.2325 26.1223 12.2328 25.7123 10.301C25.3023 8.36934 24.4577 6.55642 23.2424 4.9999C22.0272 3.44337 20.4733 2.18415 18.6988 1.31782C16.9242 0.451486 14.9756 0.000810288 13.0009 3.09594e-07ZM13.0009 24C11.0671 24.0013 9.16726 23.4921 7.49338 22.5238C7.37083 22.4527 7.23457 22.4085 7.09364 22.394C6.9527 22.3796 6.81031 22.3953 6.67588 22.44L2.00088 24L3.55963 19.325C3.60457 19.1907 3.62045 19.0483 3.60622 18.9074C3.592 18.7665 3.548 18.6301 3.47713 18.5075C2.2646 16.4111 1.77777 13.9732 2.09217 11.572C2.40657 9.17068 3.50463 6.94027 5.21599 5.22674C6.92736 3.51321 9.15638 2.41234 11.5573 2.0949C13.9581 1.77747 16.3967 2.26122 18.4945 3.47111C20.5924 4.68099 22.2324 6.54939 23.1601 8.78644C24.0877 11.0235 24.2512 13.5042 23.6252 15.8436C22.9991 18.1831 21.6185 20.2505 19.6976 21.7253C17.7766 23.2 15.4227 23.9996 13.0009 24Z" fill="#00ADB5"/>
</svg>
