<svg width="20" height="21" viewBox="0 0 20 21" fill="none" xmlns="http://www.w3.org/2000/svg">
<path d="M10 0.75C8.07164 0.75 6.18657 1.32183 4.58319 2.39317C2.97982 3.46452 1.73013 4.98726 0.992179 6.76884C0.254225 8.55042 0.061142 10.5108 0.437348 12.4021C0.813554 14.2934 1.74215 16.0307 3.10571 17.3943C4.46927 18.7579 6.20656 19.6865 8.09787 20.0627C9.98919 20.4389 11.9496 20.2458 13.7312 19.5078C15.5127 18.7699 17.0355 17.5202 18.1068 15.9168C19.1782 14.3134 19.75 12.4284 19.75 10.5C19.7473 7.91498 18.7192 5.43661 16.8913 3.60872C15.0634 1.78084 12.585 0.75273 10 0.75ZM10 18.75C8.36831 18.75 6.77326 18.2661 5.41655 17.3596C4.05984 16.4531 3.00242 15.1646 2.378 13.6571C1.75358 12.1496 1.5902 10.4908 1.90853 8.8905C2.22685 7.29016 3.01259 5.82015 4.16637 4.66637C5.32016 3.51259 6.79017 2.72685 8.39051 2.40852C9.99085 2.09019 11.6497 2.25357 13.1571 2.87799C14.6646 3.50242 15.9531 4.55984 16.8596 5.91655C17.7661 7.27325 18.25 8.8683 18.25 10.5C18.2475 12.6873 17.3775 14.7843 15.8309 16.3309C14.2843 17.8775 12.1873 18.7475 10 18.75ZM5.5 8.625C5.5 8.4025 5.56598 8.18499 5.6896 7.99998C5.81322 7.81498 5.98892 7.67078 6.19449 7.58564C6.40005 7.50049 6.62625 7.47821 6.84448 7.52162C7.06271 7.56502 7.26317 7.67217 7.4205 7.8295C7.57783 7.98684 7.68498 8.18729 7.72839 8.40552C7.7718 8.62375 7.74952 8.84995 7.66437 9.05552C7.57922 9.26109 7.43503 9.43679 7.25002 9.5604C7.06502 9.68402 6.84751 9.75 6.625 9.75C6.32664 9.75 6.04049 9.63147 5.82951 9.4205C5.61853 9.20952 5.5 8.92337 5.5 8.625ZM15.25 8.625C15.25 8.82391 15.171 9.01468 15.0303 9.15533C14.8897 9.29598 14.6989 9.375 14.5 9.375H12.25C12.0511 9.375 11.8603 9.29598 11.7197 9.15533C11.579 9.01468 11.5 8.82391 11.5 8.625C11.5 8.42609 11.579 8.23532 11.7197 8.09467C11.8603 7.95402 12.0511 7.875 12.25 7.875H14.5C14.6989 7.875 14.8897 7.95402 15.0303 8.09467C15.171 8.23532 15.25 8.42609 15.25 8.625ZM14.3988 13.125C13.4341 14.7928 11.8309 15.75 10 15.75C8.16907 15.75 6.56594 14.7937 5.60032 13.125C5.55107 13.0397 5.51911 12.9455 5.50626 12.8478C5.49342 12.7502 5.49993 12.6509 5.52544 12.5558C5.55095 12.4606 5.59495 12.3714 5.65492 12.2933C5.7149 12.2151 5.78969 12.1496 5.875 12.1003C5.96032 12.0511 6.0545 12.0191 6.15217 12.0063C6.24984 11.9934 6.34909 11.9999 6.44424 12.0254C6.53939 12.0509 6.62858 12.0949 6.70673 12.1549C6.78488 12.2149 6.85045 12.2897 6.89969 12.375C7.59907 13.5853 8.69969 14.25 10 14.25C11.3003 14.25 12.4009 13.5844 13.1013 12.375C13.1481 12.2854 13.2127 12.2062 13.291 12.1421C13.3693 12.0781 13.4597 12.0305 13.5569 12.0023C13.654 11.9742 13.7558 11.9659 13.8563 11.9781C13.9567 11.9903 14.0536 12.0227 14.1412 12.0733C14.2287 12.1239 14.3052 12.1917 14.3658 12.2727C14.4265 12.3536 14.4702 12.446 14.4943 12.5442C14.5183 12.6425 14.5223 12.7446 14.5059 12.8444C14.4895 12.9442 14.453 13.0396 14.3988 13.125Z" fill="#EEEEEE"/>
</svg>
